# xmcd CD database file generated by OrangeCD 6.2
#
# Track frame offsets:
#	150
#	13978
#	28052
#	42185
#	55709
#	83987
#	95630
#	109425
#	123616
#	137327
#	152289
#	167220
#	180968
#	196161
#	210897
#	227762
#	255476
#	270745
#
# Disc length: 3818 seconds
#
# Revision: 1
# Processed by: cddbd v1.5.2PL0 Copyright (c) Steve Scherf et al.
# Submitted via: jack 3.1.1
#
DISCID=e90ee812
DTITLE=Various Artist - Classic Blues Songs from the 1920s, Vol 6
DYEAR=2008
DGENRE=Old Timey
TTITLE0=Blind Blake - Night and Day Blues
TTITLE1=Kokomo Arnold - Milk Cow Blues
TTITLE2=Charley Patton - Shake It and Break It
TTITLE3=Skip James - Jesus Is a Mighty Good Leader
TTITLE4=Paramount Allstars - Home Town Skiffle, Pt 1, 2
TTITLE5=Buddy Boy Hawkins - Jailhouse Fire Blues
TTITLE6=Blind Lemon Jefferson - Worried Blues
TTITLE7=Kansas Joe and Memphis Minnie - Cherry Ball Blues
TTITLE8=Ida Cox - Graveyard Dream Blues
TTITLE9=Elgar's Creole Orchestra - Nightmare
TTITLE10=Rev. Emmett Dickenson - The Death of Blind Lemon
TTITLE11=Rev. A.W. Nix - Death May Be Your Christmas Present
TTITLE12=Blind Blake - Sun to Sun
TTITLE13=Ben Curry - The Laffing Rag
TTITLE14=Ben Curry - Hot Dog
TTITLE15=Paramount Allstars - Home Town Skiffle - Test
TTITLE16=Tommy Johnson - Alcohol  and Jake Blues
TTITLE17=Tommy Johnson - Ridin' Horse
EXTD=
EXTT0=
EXTT1=
EXTT2=
EXTT3=
EXTT4=
EXTT5=
EXTT6=
EXTT7=
EXTT8=
EXTT9=
EXTT10=
EXTT11=
EXTT12=
EXTT13=
EXTT14=
EXTT15=
EXTT16=
EXTT17=
PLAYORDER=
